<svg aria-hidden="true" style="position: absolute; width: 0; height: 0; overflow: hidden;"
  version="1.1" xmlns="http://www.w3.org/2000/svg" xmlns:xlink="http://www.w3.org/1999/xlink">
  <defs>
    <symbol id="icon-facebook" viewBox="0 0 32 32">
      <path
        d="M18.667 18h3.333l1.333-5.333h-4.667v-2.667c0-1.373 0-2.667 2.667-2.667h2v-4.48c-0.435-0.057-2.076-0.187-3.809-0.187-3.62 0-6.191 2.209-6.191 6.267v3.733h-4v5.333h4v11.333h5.333v-11.333z"></path>
    </symbol>
    <symbol id="icon-flag-for-ukraine" viewBox="0 0 32 32">
      <path fill="#ffe62e" style="fill: var(--color1, #ffe62e)"
        d="M16 31c8.3 0 15-6.7 15-15h-30c0 8.3 6.7 15 15 15z"></path>
      <path fill="#428bc1" style="fill: var(--color2, #428bc1)"
        d="M16 1c-8.3 0-15 6.7-15 15h30c0-8.3-6.7-15-15-15z"></path>
    </symbol>
    <symbol id="icon-arrow-up" viewBox="0 0 32 32">
      <path
        d="M4.813 14.552c-0.078 0.081-0.139 0.177-0.18 0.282s-0.061 0.217-0.059 0.329c0.004 0.227 0.099 0.443 0.263 0.601s0.384 0.244 0.611 0.239c0.227-0.004 0.444-0.099 0.601-0.263l9.097-9.457v21.432c0 0.227 0.090 0.445 0.251 0.606s0.379 0.251 0.606 0.251 0.445-0.090 0.606-0.251c0.161-0.161 0.251-0.379 0.251-0.606v-21.43l9.095 9.456c0.078 0.081 0.171 0.146 0.274 0.191s0.214 0.069 0.327 0.072 0.224-0.018 0.329-0.059c0.105-0.041 0.2-0.102 0.282-0.18s0.146-0.171 0.191-0.274c0.045-0.103 0.070-0.214 0.072-0.327s-0.018-0.224-0.059-0.329c-0.041-0.105-0.102-0.201-0.18-0.282l-10.365-10.775c-0.107-0.111-0.235-0.199-0.376-0.259s-0.294-0.091-0.447-0.091c-0.154 0-0.306 0.031-0.447 0.091s-0.269 0.148-0.376 0.259l-10.366 10.774z"></path>
    </symbol>
    <symbol id="icon-arrow-up-2" viewBox="0 0 32 32">
      <path stroke-linejoin="round" stroke-linecap="round" stroke-miterlimit="4"
        stroke-width="1.3333" d="M22.667 18.667l-6.667-6.667-6.667 6.667"></path>
    </symbol>
    <symbol id="icon-check" viewBox="0 0 32 32">
      <path stroke-linejoin="round" stroke-linecap="round" stroke-miterlimit="4" stroke-width="2"
        d="M26.667 9.333l-13.333 13.333-6.667-6.667"></path>
    </symbol>
    <symbol id="icon-close" viewBox="0 0 32 32">
      <path
        d="M8.533 24.411l-0.944-0.944 7.467-7.467-7.467-7.467 0.944-0.944 7.467 7.467 7.467-7.467 0.944 0.944-7.467 7.467 7.467 7.467-0.944 0.944-7.467-7.467-7.467 7.467z"></path>
    </symbol>
    <symbol id="icon-location" viewBox="0 0 32 32">
      <path
        d="M16 2.572c2.955 0 5.789 1.174 7.879 3.264s3.264 4.924 3.264 7.879c0 4.709-3.309 9.84-9.84 15.449-0.363 0.312-0.826 0.483-1.305 0.483s-0.942-0.173-1.304-0.485l-0.432-0.375c-6.242-5.463-9.405-10.469-9.405-15.072 0-2.955 1.174-5.79 3.264-7.879s4.924-3.264 7.879-3.264zM16 4.286c-2.501 0-4.899 0.993-6.667 2.762s-2.762 4.166-2.762 6.667c0 4.002 2.912 8.614 8.816 13.779l0.426 0.369c0.052 0.045 0.118 0.069 0.186 0.069s0.134-0.025 0.186-0.069c6.19-5.317 9.242-10.051 9.242-14.149 0-1.238-0.244-2.464-0.718-3.608s-1.168-2.183-2.044-3.059c-0.875-0.876-1.915-1.57-3.059-2.044s-2.37-0.718-3.608-0.718zM16 9.429c1.137 0 2.227 0.452 3.030 1.255s1.255 1.894 1.255 3.031c0 1.137-0.452 2.227-1.255 3.030s-1.894 1.255-3.030 1.255c-1.137 0-2.227-0.451-3.030-1.255s-1.255-1.894-1.255-3.030c0-1.137 0.452-2.227 1.255-3.031s1.894-1.255 3.030-1.255zM16 11.143c-0.682 0-1.336 0.271-1.818 0.753s-0.753 1.136-0.753 1.818c0 0.682 0.271 1.336 0.753 1.818s1.136 0.753 1.818 0.753 1.336-0.271 1.818-0.753c0.482-0.482 0.753-1.136 0.753-1.818s-0.271-1.336-0.753-1.818c-0.482-0.482-1.136-0.753-1.818-0.753z"></path>
    </symbol>
    <symbol id="icon-mail" viewBox="0 0 32 32">
      <path
        d="M6.153 25.333c-0.613 0-1.125-0.205-1.536-0.616s-0.617-0.924-0.617-1.537v-14.36c0-0.613 0.206-1.125 0.617-1.536s0.923-0.617 1.536-0.617h19.693c0.613 0 1.125 0.206 1.536 0.617s0.617 0.923 0.617 1.536v14.36c0 0.613-0.205 1.125-0.616 1.536s-0.924 0.617-1.537 0.617h-19.693zM16 16.153l-10.667-6.973v14c0 0.239 0.077 0.436 0.231 0.589s0.35 0.231 0.589 0.231h19.693c0.239 0 0.436-0.077 0.589-0.231s0.231-0.35 0.231-0.589v-14l-10.667 6.973zM16 14.667l10.256-6.667h-20.512l10.256 6.667zM5.333 9.18v-1.18 15.18c0 0.239 0.077 0.436 0.231 0.589s0.35 0.231 0.589 0.231h-0.82v-14.82z"></path>
    </symbol>
    <symbol id="icon-youtube" viewBox="0 0 32 32">
      <path
        d="M13.333 20l6.92-4-6.92-4v8zM28.747 9.56c0.173 0.627 0.293 1.467 0.373 2.533 0.093 1.067 0.133 1.987 0.133 2.787l0.080 1.12c0 2.92-0.213 5.067-0.587 6.44-0.333 1.2-1.107 1.973-2.307 2.307-0.627 0.173-1.773 0.293-3.533 0.373-1.733 0.093-3.32 0.133-4.787 0.133l-2.12 0.080c-5.587 0-9.067-0.213-10.44-0.587-1.2-0.333-1.973-1.107-2.307-2.307-0.173-0.627-0.293-1.467-0.373-2.533-0.093-1.067-0.133-1.987-0.133-2.787l-0.080-1.12c0-2.92 0.213-5.067 0.587-6.44 0.333-1.2 1.107-1.973 2.307-2.307 0.627-0.173 1.773-0.293 3.533-0.373 1.733-0.093 3.32-0.133 4.787-0.133l2.12-0.080c5.587 0 9.067 0.213 10.44 0.587 1.2 0.333 1.973 1.107 2.307 2.307z"></path>
    </symbol>
    <symbol id="icon-insta" viewBox="0 0 32 32">
      <path fill="current" stroke="current" style="stroke: var(--color3, current)" stroke-linejoin="miter"
        stroke-linecap="butt" stroke-miterlimit="10" stroke-width="1.3333"
        d="M20.793 5.606h-9.587c-3.093 0-5.6 2.508-5.6 5.601v9.586c0 3.093 2.508 5.601 5.601 5.601h9.586c3.093 0 5.601-2.508 5.601-5.601v-9.586c0-3.093-2.507-5.601-5.601-5.601z"></path>
      <path fill="none" stroke="#fff" style="stroke: var(--color3, #fff)" stroke-linejoin="miter"
        stroke-linecap="butt" stroke-miterlimit="10" stroke-width="1.3333"
        d="M16 21.018c2.771 0 5.018-2.247 5.018-5.018s-2.247-5.018-5.018-5.018c-2.771 0-5.018 2.247-5.018 5.018s2.247 5.018 5.018 5.018z"></path>
      <path
        d="M22.093 10.982c0.594 0 1.075-0.481 1.075-1.075s-0.481-1.075-1.075-1.075c-0.594 0-1.075 0.481-1.075 1.075s0.481 1.075 1.075 1.075z"></path>
    </symbol>
    <symbol id="icon-phone" viewBox="0 0 32 32">
      <path
        d="M27.597 20.266l-5.902-2.641c-0.229-0.099-0.479-0.139-0.727-0.118s-0.487 0.105-0.695 0.243c-0.017 0.011-0.033 0.022-0.047 0.035l-3.1 2.643c-0.069 0.042-0.147 0.067-0.228 0.071s-0.161-0.011-0.235-0.045c-2.030-0.98-4.131-3.065-5.111-5.071-0.035-0.073-0.051-0.153-0.047-0.233s0.028-0.159 0.069-0.228l2.65-3.151c0.013-0.015 0.024-0.031 0.035-0.047 0.137-0.208 0.22-0.446 0.242-0.694s-0.018-0.497-0.117-0.726l-2.646-5.893c-0.128-0.298-0.349-0.547-0.63-0.709s-0.608-0.228-0.93-0.189c-1.573 0.207-3.017 0.98-4.062 2.174s-1.619 2.728-1.616 4.314c0 9.65 7.85 17.5 17.5 17.5 1.587 0.003 3.12-0.571 4.314-1.616s1.967-2.489 2.174-4.062c0.039-0.321-0.027-0.646-0.187-0.926s-0.407-0.501-0.704-0.63zM27.5 21.697c-0.177 1.332-0.832 2.555-1.844 3.438s-2.312 1.369-3.656 1.364c-9.097 0-16.5-7.403-16.5-16.5-0.005-1.344 0.48-2.643 1.364-3.656s2.106-1.668 3.438-1.844c0.020-0.001 0.040-0.001 0.060 0 0.099 0.001 0.195 0.031 0.276 0.086s0.145 0.134 0.182 0.225l2.639 5.893c0.031 0.072 0.044 0.15 0.039 0.228s-0.028 0.154-0.068 0.222l-2.649 3.15c-0.012 0.016-0.025 0.031-0.036 0.049-0.141 0.216-0.224 0.464-0.241 0.722s0.032 0.515 0.144 0.747c1.086 2.224 3.326 4.448 5.575 5.534 0.234 0.111 0.493 0.159 0.751 0.14s0.507-0.105 0.723-0.248l0.046-0.035 3.104-2.64c0.066-0.041 0.141-0.065 0.219-0.071s0.155 0.007 0.227 0.037l5.901 2.645c0.1 0.041 0.183 0.114 0.238 0.207s0.078 0.201 0.067 0.308z"></path>
    </symbol>
    <symbol id="icon-copy" viewBox="0 0 32 32">
      <path
        d="M20 1.667h-5.408c-2.451 0-4.392 0-5.911 0.204-1.563 0.211-2.828 0.653-3.827 1.651-0.997 0.999-1.44 2.264-1.651 3.827-0.204 1.52-0.204 3.46-0.204 5.911v8.075c0 1.191 0.425 2.343 1.199 3.249s1.846 1.505 3.022 1.691c0.183 1.019 0.536 1.888 1.243 2.596 0.803 0.803 1.813 1.147 3.013 1.309 1.156 0.155 2.627 0.155 4.449 0.155h4.147c1.823 0 3.293 0 4.449-0.155 1.2-0.163 2.211-0.507 3.013-1.309s1.147-1.813 1.309-3.013c0.155-1.156 0.155-2.627 0.155-4.449v-6.813c0-1.823 0-3.293-0.155-4.449-0.163-1.2-0.507-2.211-1.309-3.013-0.708-0.707-1.577-1.060-2.596-1.243-0.186-1.177-0.785-2.248-1.691-3.022s-2.058-1.199-3.249-1.199zM22.84 5.695c-0.203-0.592-0.585-1.106-1.095-1.469s-1.119-0.559-1.745-0.559h-5.333c-2.543 0-4.348 0.003-5.72 0.187-1.34 0.18-2.113 0.519-2.677 1.083s-0.903 1.337-1.083 2.679c-0.184 1.371-0.187 3.176-0.187 5.719v8c-0 0.626 0.195 1.236 0.559 1.745s0.877 0.892 1.469 1.095c-0.028-0.813-0.028-1.733-0.028-2.767v-6.813c0-1.823 0-3.293 0.156-4.449 0.16-1.2 0.507-2.211 1.308-3.013 0.803-0.803 1.813-1.147 3.013-1.308 1.156-0.156 2.627-0.156 4.449-0.156h4.147c1.033 0 1.953 0 2.767 0.028zM9.877 8.547c0.369-0.369 0.887-0.609 1.867-0.741 1.005-0.135 2.341-0.137 4.255-0.137h4c1.913 0 3.248 0.003 4.256 0.137 0.979 0.132 1.496 0.373 1.865 0.741 0.369 0.369 0.609 0.887 0.741 1.867 0.135 1.005 0.137 2.341 0.137 4.255v6.667c0 1.913-0.003 3.248-0.137 4.256-0.132 0.979-0.373 1.496-0.741 1.865-0.369 0.369-0.887 0.609-1.867 0.741-1.007 0.135-2.341 0.137-4.255 0.137h-4c-1.913 0-3.249-0.003-4.256-0.137-0.979-0.132-1.496-0.373-1.865-0.741-0.369-0.369-0.609-0.887-0.741-1.867-0.135-1.007-0.137-2.341-0.137-4.255v-6.667c0-1.913 0.003-3.249 0.137-4.256 0.132-0.979 0.373-1.496 0.741-1.865z"></path>
    </symbol>
    <symbol id="icon-telegram" viewBox="0 0 32 32">
      <path
        d="M29.26 3.686c-0.287-0.238-0.634-0.394-1.003-0.452s-0.747-0.014-1.093 0.126l-23.889 9.644c-0.386 0.159-0.715 0.431-0.942 0.781s-0.344 0.761-0.332 1.178 0.149 0.821 0.395 1.158c0.246 0.337 0.589 0.591 0.983 0.729l5.155 1.789 2.793 9.235c0.005 0.019 0.023 0.031 0.031 0.048 0.029 0.074 0.071 0.141 0.124 0.2 0.081 0.090 0.185 0.156 0.301 0.191 0.013 0.005 0.023 0.017 0.036 0.020h0.008l0.004 0.001c0.103 0.022 0.21 0.017 0.311-0.016 0.011-0.003 0.021-0.003 0.033-0.007 0.096-0.034 0.184-0.089 0.255-0.163 0.008-0.009 0.021-0.011 0.029-0.019l4.017-4.435 5.863 4.54c0.356 0.279 0.795 0.429 1.247 0.429 0.979 0 1.823-0.685 2.024-1.641l4.349-21.357c0.074-0.363 0.048-0.738-0.075-1.087s-0.339-0.658-0.623-0.894v0.001zM12.784 20.393l-0.943 4.583-1.967-6.504 9.753-5.080-6.663 6.664c-0.092 0.092-0.155 0.209-0.181 0.337zM24.303 26.756c-0.025 0.121-0.081 0.233-0.162 0.327s-0.185 0.164-0.301 0.205c-0.113 0.044-0.236 0.057-0.356 0.039s-0.233-0.067-0.329-0.143l-6.351-4.919c-0.133-0.103-0.299-0.151-0.466-0.136s-0.322 0.092-0.435 0.216l-2.796 3.081 0.941-4.569 9.585-9.587c0.112-0.113 0.181-0.262 0.193-0.42s-0.033-0.316-0.127-0.444-0.231-0.219-0.385-0.255c-0.155-0.036-0.318-0.016-0.459 0.057l-13.817 7.197-5.223-1.816c-0.138-0.046-0.259-0.133-0.346-0.251s-0.134-0.259-0.136-0.405c-0.007-0.147 0.033-0.293 0.112-0.416s0.196-0.22 0.333-0.274l23.885-9.644c0.122-0.052 0.257-0.069 0.388-0.049s0.255 0.077 0.356 0.163c0.101 0.081 0.176 0.189 0.219 0.311s0.051 0.253 0.023 0.38l-4.348 21.352z"></path>
    </symbol>
  </defs>
</svg>