<svg aria-hidden="true" style="position: absolute; width: 0; height: 0; overflow: hidden;"
  version="1.1" xmlns="http://www.w3.org/2000/svg" xmlns:xlink="http://www.w3.org/1999/xlink">
  <defs>
    <symbol id="icon-facebook" viewBox="0 0 32 32">
      <path
        d="M18.667 18h3.333l1.333-5.333h-4.667v-2.667c0-1.373 0-2.667 2.667-2.667h2v-4.48c-0.435-0.057-2.076-0.187-3.809-0.187-3.62 0-6.191 2.209-6.191 6.267v3.733h-4v5.333h4v11.333h5.333v-11.333z"></path>
    </symbol>
    <symbol id="icon-flag-for-ukraine" viewBox="0 0 32 32">
      <path fill="#ffe62e" style="fill: var(--color1, #ffe62e)"
        d="M16 31c8.3 0 15-6.7 15-15h-30c0 8.3 6.7 15 15 15z"></path>
      <path fill="#428bc1" style="fill: var(--color2, #428bc1)"
        d="M16 1c-8.3 0-15 6.7-15 15h30c0-8.3-6.7-15-15-15z"></path>
    </symbol>
    <symbol id="icon-arrow-up" viewBox="0 0 32 32">
      <path
        d="M4.813 14.552c-0.078 0.081-0.139 0.177-0.18 0.282s-0.061 0.217-0.059 0.329c0.004 0.227 0.099 0.443 0.263 0.601s0.384 0.244 0.611 0.239c0.227-0.004 0.444-0.099 0.601-0.263l9.097-9.457v21.432c0 0.227 0.090 0.445 0.251 0.606s0.379 0.251 0.606 0.251 0.445-0.090 0.606-0.251c0.161-0.161 0.251-0.379 0.251-0.606v-21.43l9.095 9.456c0.078 0.081 0.171 0.146 0.274 0.191s0.214 0.069 0.327 0.072 0.224-0.018 0.329-0.059c0.105-0.041 0.2-0.102 0.282-0.18s0.146-0.171 0.191-0.274c0.045-0.103 0.070-0.214 0.072-0.327s-0.018-0.224-0.059-0.329c-0.041-0.105-0.102-0.201-0.18-0.282l-10.365-10.775c-0.107-0.111-0.235-0.199-0.376-0.259s-0.294-0.091-0.447-0.091c-0.154 0-0.306 0.031-0.447 0.091s-0.269 0.148-0.376 0.259l-10.366 10.774z"></path>
    </symbol>
    <symbol id="icon-arrow-up-2" viewBox="0 0 32 32">
      <path stroke-linejoin="round" stroke-linecap="round" stroke-miterlimit="4"
        stroke-width="1.3333" d="M22.667 18.667l-6.667-6.667-6.667 6.667"></path>
    </symbol>
    <symbol id="icon-check" viewBox="0 0 32 32">
      <path stroke-linejoin="round" stroke-linecap="round" stroke-miterlimit="4" stroke-width="2"
        d="M26.667 9.333l-13.333 13.333-6.667-6.667"></path>
    </symbol>
    <symbol id="icon-close" viewBox="0 0 32 32">
      <path
        d="M8.533 24.411l-0.944-0.944 7.467-7.467-7.467-7.467 0.944-0.944 7.467 7.467 7.467-7.467 0.944 0.944-7.467 7.467 7.467 7.467-0.944 0.944-7.467-7.467-7.467 7.467z"></path>
    </symbol>
    <symbol id="icon-location" viewBox="0 0 32 32">
      <path
        d="M16 2.572c2.955 0 5.789 1.174 7.879 3.264s3.264 4.924 3.264 7.879c0 4.709-3.309 9.84-9.84 15.449-0.363 0.312-0.826 0.483-1.305 0.483s-0.942-0.173-1.304-0.485l-0.432-0.375c-6.242-5.463-9.405-10.469-9.405-15.072 0-2.955 1.174-5.79 3.264-7.879s4.924-3.264 7.879-3.264zM16 4.286c-2.501 0-4.899 0.993-6.667 2.762s-2.762 4.166-2.762 6.667c0 4.002 2.912 8.614 8.816 13.779l0.426 0.369c0.052 0.045 0.118 0.069 0.186 0.069s0.134-0.025 0.186-0.069c6.19-5.317 9.242-10.051 9.242-14.149 0-1.238-0.244-2.464-0.718-3.608s-1.168-2.183-2.044-3.059c-0.875-0.876-1.915-1.57-3.059-2.044s-2.37-0.718-3.608-0.718zM16 9.429c1.137 0 2.227 0.452 3.030 1.255s1.255 1.894 1.255 3.031c0 1.137-0.452 2.227-1.255 3.030s-1.894 1.255-3.030 1.255c-1.137 0-2.227-0.451-3.030-1.255s-1.255-1.894-1.255-3.030c0-1.137 0.452-2.227 1.255-3.031s1.894-1.255 3.030-1.255zM16 11.143c-0.682 0-1.336 0.271-1.818 0.753s-0.753 1.136-0.753 1.818c0 0.682 0.271 1.336 0.753 1.818s1.136 0.753 1.818 0.753 1.336-0.271 1.818-0.753c0.482-0.482 0.753-1.136 0.753-1.818s-0.271-1.336-0.753-1.818c-0.482-0.482-1.136-0.753-1.818-0.753z"></path>
    </symbol>
    <symbol id="icon-mail" viewBox="0 0 32 32">
      <path
        d="M6.153 25.333c-0.613 0-1.125-0.205-1.536-0.616s-0.617-0.924-0.617-1.537v-14.36c0-0.613 0.206-1.125 0.617-1.536s0.923-0.617 1.536-0.617h19.693c0.613 0 1.125 0.206 1.536 0.617s0.617 0.923 0.617 1.536v14.36c0 0.613-0.205 1.125-0.616 1.536s-0.924 0.617-1.537 0.617h-19.693zM16 16.153l-10.667-6.973v14c0 0.239 0.077 0.436 0.231 0.589s0.35 0.231 0.589 0.231h19.693c0.239 0 0.436-0.077 0.589-0.231s0.231-0.35 0.231-0.589v-14l-10.667 6.973zM16 14.667l10.256-6.667h-20.512l10.256 6.667zM5.333 9.18v-1.18 15.18c0 0.239 0.077 0.436 0.231 0.589s0.35 0.231 0.589 0.231h-0.82v-14.82z"></path>
    </symbol>
    <symbol id="icon-youtube" viewBox="0 0 32 32">
      <path
        d="M13.333 20l6.92-4-6.92-4v8zM28.747 9.56c0.173 0.627 0.293 1.467 0.373 2.533 0.093 1.067 0.133 1.987 0.133 2.787l0.080 1.12c0 2.92-0.213 5.067-0.587 6.44-0.333 1.2-1.107 1.973-2.307 2.307-0.627 0.173-1.773 0.293-3.533 0.373-1.733 0.093-3.32 0.133-4.787 0.133l-2.12 0.080c-5.587 0-9.067-0.213-10.44-0.587-1.2-0.333-1.973-1.107-2.307-2.307-0.173-0.627-0.293-1.467-0.373-2.533-0.093-1.067-0.133-1.987-0.133-2.787l-0.080-1.12c0-2.92 0.213-5.067 0.587-6.44 0.333-1.2 1.107-1.973 2.307-2.307 0.627-0.173 1.773-0.293 3.533-0.373 1.733-0.093 3.32-0.133 4.787-0.133l2.12-0.080c5.587 0 9.067 0.213 10.44 0.587 1.2 0.333 1.973 1.107 2.307 2.307z"></path>
    </symbol>

    <symbol id="icon-insta" viewBox="0 0 32 32">
      <path fill="current" stroke="#000" style="stroke: var(--color3, #000)" stroke-linejoin="miter"
        stroke-linecap="butt" stroke-miterlimit="10" stroke-width="1.3333"
        d="M20.793 5.606h-9.587c-3.093 0-5.6 2.508-5.6 5.601v9.586c0 3.093 2.508 5.601 5.601 5.601h9.586c3.093 0 5.601-2.508 5.601-5.601v-9.586c0-3.093-2.507-5.601-5.601-5.601z"></path>
      <path fill="none" stroke="#000" style="stroke: var(--color3, #000)" stroke-linejoin="miter"
        stroke-linecap="butt" stroke-miterlimit="10" stroke-width="1.3333"
        d="M16 21.018c2.771 0 5.018-2.247 5.018-5.018s-2.247-5.018-5.018-5.018c-2.771 0-5.018 2.247-5.018 5.018s2.247 5.018 5.018 5.018z"></path>
      <path
        d="M22.093 10.982c0.594 0 1.075-0.481 1.075-1.075s-0.481-1.075-1.075-1.075c-0.594 0-1.075 0.481-1.075 1.075s0.481 1.075 1.075 1.075z"></path>
    </symbol>
    <symbol id="icon-insta-mobile" viewBox="0 0 32 32">
      <path fill="current" stroke="#fff" style="stroke: var(--color3, #fff)" stroke-linejoin="miter"
        stroke-linecap="butt" stroke-miterlimit="10" stroke-width="1.3333"
        d="M20.793 5.606h-9.587c-3.093 0-5.6 2.508-5.6 5.601v9.586c0 3.093 2.508 5.601 5.601 5.601h9.586c3.093 0 5.601-2.508 5.601-5.601v-9.586c0-3.093-2.507-5.601-5.601-5.601z"></path>
      <path fill="none" stroke="#000" style="stroke: var(--color3, #000)" stroke-linejoin="miter"
        stroke-linecap="butt" stroke-miterlimit="10" stroke-width="1.3333"
        d="M16 21.018c2.771 0 5.018-2.247 5.018-5.018s-2.247-5.018-5.018-5.018c-2.771 0-5.018 2.247-5.018 5.018s2.247 5.018 5.018 5.018z"></path>
      <path
        d="M22.093 10.982c0.594 0 1.075-0.481 1.075-1.075s-0.481-1.075-1.075-1.075c-0.594 0-1.075 0.481-1.075 1.075s0.481 1.075 1.075 1.075z"></path>
    </symbol>

    <symbol id="icon-phone" viewBox="0 0 32 32">
      <path
        d="M27.597 20.266l-5.902-2.641c-0.229-0.099-0.479-0.139-0.727-0.118s-0.487 0.105-0.695 0.243c-0.017 0.011-0.033 0.022-0.047 0.035l-3.1 2.643c-0.069 0.042-0.147 0.067-0.228 0.071s-0.161-0.011-0.235-0.045c-2.030-0.98-4.131-3.065-5.111-5.071-0.035-0.073-0.051-0.153-0.047-0.233s0.028-0.159 0.069-0.228l2.65-3.151c0.013-0.015 0.024-0.031 0.035-0.047 0.137-0.208 0.22-0.446 0.242-0.694s-0.018-0.497-0.117-0.726l-2.646-5.893c-0.128-0.298-0.349-0.547-0.63-0.709s-0.608-0.228-0.93-0.189c-1.573 0.207-3.017 0.98-4.062 2.174s-1.619 2.728-1.616 4.314c0 9.65 7.85 17.5 17.5 17.5 1.587 0.003 3.12-0.571 4.314-1.616s1.967-2.489 2.174-4.062c0.039-0.321-0.027-0.646-0.187-0.926s-0.407-0.501-0.704-0.63zM27.5 21.697c-0.177 1.332-0.832 2.555-1.844 3.438s-2.312 1.369-3.656 1.364c-9.097 0-16.5-7.403-16.5-16.5-0.005-1.344 0.48-2.643 1.364-3.656s2.106-1.668 3.438-1.844c0.020-0.001 0.040-0.001 0.060 0 0.099 0.001 0.195 0.031 0.276 0.086s0.145 0.134 0.182 0.225l2.639 5.893c0.031 0.072 0.044 0.15 0.039 0.228s-0.028 0.154-0.068 0.222l-2.649 3.15c-0.012 0.016-0.025 0.031-0.036 0.049-0.141 0.216-0.224 0.464-0.241 0.722s0.032 0.515 0.144 0.747c1.086 2.224 3.326 4.448 5.575 5.534 0.234 0.111 0.493 0.159 0.751 0.14s0.507-0.105 0.723-0.248l0.046-0.035 3.104-2.64c0.066-0.041 0.141-0.065 0.219-0.071s0.155 0.007 0.227 0.037l5.901 2.645c0.1 0.041 0.183 0.114 0.238 0.207s0.078 0.201 0.067 0.308z"></path>
    </symbol>
    <symbol id="icon-copy" viewBox="0 0 32 32">
      <path
        d="M20 1.667h-5.408c-2.451 0-4.392 0-5.911 0.204-1.563 0.211-2.828 0.653-3.827 1.651-0.997 0.999-1.44 2.264-1.651 3.827-0.204 1.52-0.204 3.46-0.204 5.911v8.075c0 1.191 0.425 2.343 1.199 3.249s1.846 1.505 3.022 1.691c0.183 1.019 0.536 1.888 1.243 2.596 0.803 0.803 1.813 1.147 3.013 1.309 1.156 0.155 2.627 0.155 4.449 0.155h4.147c1.823 0 3.293 0 4.449-0.155 1.2-0.163 2.211-0.507 3.013-1.309s1.147-1.813 1.309-3.013c0.155-1.156 0.155-2.627 0.155-4.449v-6.813c0-1.823 0-3.293-0.155-4.449-0.163-1.2-0.507-2.211-1.309-3.013-0.708-0.707-1.577-1.060-2.596-1.243-0.186-1.177-0.785-2.248-1.691-3.022s-2.058-1.199-3.249-1.199zM22.84 5.695c-0.203-0.592-0.585-1.106-1.095-1.469s-1.119-0.559-1.745-0.559h-5.333c-2.543 0-4.348 0.003-5.72 0.187-1.34 0.18-2.113 0.519-2.677 1.083s-0.903 1.337-1.083 2.679c-0.184 1.371-0.187 3.176-0.187 5.719v8c-0 0.626 0.195 1.236 0.559 1.745s0.877 0.892 1.469 1.095c-0.028-0.813-0.028-1.733-0.028-2.767v-6.813c0-1.823 0-3.293 0.156-4.449 0.16-1.2 0.507-2.211 1.308-3.013 0.803-0.803 1.813-1.147 3.013-1.308 1.156-0.156 2.627-0.156 4.449-0.156h4.147c1.033 0 1.953 0 2.767 0.028zM9.877 8.547c0.369-0.369 0.887-0.609 1.867-0.741 1.005-0.135 2.341-0.137 4.255-0.137h4c1.913 0 3.248 0.003 4.256 0.137 0.979 0.132 1.496 0.373 1.865 0.741 0.369 0.369 0.609 0.887 0.741 1.867 0.135 1.005 0.137 2.341 0.137 4.255v6.667c0 1.913-0.003 3.248-0.137 4.256-0.132 0.979-0.373 1.496-0.741 1.865-0.369 0.369-0.887 0.609-1.867 0.741-1.007 0.135-2.341 0.137-4.255 0.137h-4c-1.913 0-3.249-0.003-4.256-0.137-0.979-0.132-1.496-0.373-1.865-0.741-0.369-0.369-0.609-0.887-0.741-1.867-0.135-1.007-0.137-2.341-0.137-4.255v-6.667c0-1.913 0.003-3.249 0.137-4.256 0.132-0.979 0.373-1.496 0.741-1.865z"></path>
    </symbol>
    <symbol id="icon-telegram" viewBox="0 0 32 32">
      <path
        d="M29.26 3.686c-0.287-0.238-0.634-0.394-1.003-0.452s-0.747-0.014-1.093 0.126l-23.889 9.644c-0.386 0.159-0.715 0.431-0.942 0.781s-0.344 0.761-0.332 1.178 0.149 0.821 0.395 1.158c0.246 0.337 0.589 0.591 0.983 0.729l5.155 1.789 2.793 9.235c0.005 0.019 0.023 0.031 0.031 0.048 0.029 0.074 0.071 0.141 0.124 0.2 0.081 0.090 0.185 0.156 0.301 0.191 0.013 0.005 0.023 0.017 0.036 0.020h0.008l0.004 0.001c0.103 0.022 0.21 0.017 0.311-0.016 0.011-0.003 0.021-0.003 0.033-0.007 0.096-0.034 0.184-0.089 0.255-0.163 0.008-0.009 0.021-0.011 0.029-0.019l4.017-4.435 5.863 4.54c0.356 0.279 0.795 0.429 1.247 0.429 0.979 0 1.823-0.685 2.024-1.641l4.349-21.357c0.074-0.363 0.048-0.738-0.075-1.087s-0.339-0.658-0.623-0.894v0.001zM12.784 20.393l-0.943 4.583-1.967-6.504 9.753-5.080-6.663 6.664c-0.092 0.092-0.155 0.209-0.181 0.337zM24.303 26.756c-0.025 0.121-0.081 0.233-0.162 0.327s-0.185 0.164-0.301 0.205c-0.113 0.044-0.236 0.057-0.356 0.039s-0.233-0.067-0.329-0.143l-6.351-4.919c-0.133-0.103-0.299-0.151-0.466-0.136s-0.322 0.092-0.435 0.216l-2.796 3.081 0.941-4.569 9.585-9.587c0.112-0.113 0.181-0.262 0.193-0.42s-0.033-0.316-0.127-0.444-0.231-0.219-0.385-0.255c-0.155-0.036-0.318-0.016-0.459 0.057l-13.817 7.197-5.223-1.816c-0.138-0.046-0.259-0.133-0.346-0.251s-0.134-0.259-0.136-0.405c-0.007-0.147 0.033-0.293 0.112-0.416s0.196-0.22 0.333-0.274l23.885-9.644c0.122-0.052 0.257-0.069 0.388-0.049s0.255 0.077 0.356 0.163c0.101 0.081 0.176 0.189 0.219 0.311s0.051 0.253 0.023 0.38l-4.348 21.352z"></path>
    </symbol>

    <!-- на потім іконка лого  -->
    <symbol id="icon-logo" viewBox="0 0 32 32">
      <svg xmlns="http://www.w3.org/2000/svg" width="236" height="45" viewBox="0 0 236 45"
        fill="none">
        <path
          d="M51.3409 3.36358V4.31812H45.608V14.9999H44.5455V3.36358H51.3409ZM52.6165 18.2726V6.27267H53.5994V7.93744H53.7188C53.84 7.67607 54.0066 7.40903 54.2188 7.1363C54.4309 6.85979 54.7112 6.62683 55.0597 6.43744C55.4119 6.24805 55.8551 6.15335 56.3892 6.15335C57.1089 6.15335 57.7377 6.34274 58.2756 6.72153C58.8172 7.09653 59.2377 7.62304 59.5369 8.30107C59.84 8.97532 59.9915 9.76129 59.9915 10.659C59.9915 11.5605 59.84 12.3503 59.5369 13.0283C59.2377 13.7063 58.8172 14.2347 58.2756 14.6135C57.7377 14.9923 57.1127 15.1817 56.4006 15.1817C55.8741 15.1817 55.4328 15.087 55.0767 14.8976C54.7244 14.7082 54.4384 14.4753 54.2188 14.1988C54.0028 13.9185 53.8362 13.6457 53.7188 13.3806H53.6278V18.2726H52.6165ZM53.6165 10.6419C53.6165 11.3465 53.7206 11.9715 53.929 12.5169C54.1411 13.0586 54.4441 13.4847 54.8381 13.7954C55.2358 14.1022 55.7169 14.2556 56.2812 14.2556C56.8608 14.2556 57.3494 14.0965 57.7472 13.7783C58.1487 13.4563 58.4536 13.0226 58.6619 12.4772C58.8741 11.9317 58.9801 11.32 58.9801 10.6419C58.9801 9.97153 58.8759 9.36735 58.6676 8.82948C58.4631 8.2916 58.16 7.86547 57.7585 7.55107C57.357 7.23288 56.8646 7.0738 56.2812 7.0738C55.7131 7.0738 55.2301 7.22721 54.8324 7.53403C54.4347 7.83706 54.1316 8.25752 53.9233 8.79539C53.7188 9.32949 53.6165 9.94502 53.6165 10.6419ZM65.6023 15.1817C64.8485 15.1817 64.1818 14.9904 63.6023 14.6079C63.0265 14.2253 62.5758 13.6969 62.25 13.0226C61.9242 12.3446 61.7614 11.5624 61.7614 10.676C61.7614 9.78214 61.9242 8.99615 62.25 8.31812C62.5758 7.6363 63.0265 7.106 63.6023 6.72721C64.1818 6.34464 64.8485 6.15335 65.6023 6.15335C66.3561 6.15335 67.0208 6.34464 67.5966 6.72721C68.1723 7.10979 68.6231 7.64009 68.9489 8.31812C69.2784 8.99615 69.4432 9.78214 69.4432 10.676C69.4432 11.5624 69.2803 12.3446 68.9545 13.0226C68.6288 13.6969 68.1761 14.2253 67.5966 14.6079C67.0208 14.9904 66.3561 15.1817 65.6023 15.1817ZM65.6023 14.2556C66.2083 14.2556 66.7216 14.0927 67.142 13.7669C67.5625 13.4412 67.8807 13.0075 68.0966 12.4658C68.3163 11.9241 68.4261 11.3276 68.4261 10.676C68.4261 10.0245 68.3163 9.42607 68.0966 8.88062C67.8807 8.33517 67.5625 7.89767 67.142 7.56812C66.7216 7.23858 66.2083 7.0738 65.6023 7.0738C65 7.0738 64.4867 7.23858 64.0625 7.56812C63.642 7.89767 63.322 8.33517 63.1023 8.88062C62.8864 9.42607 62.7784 10.0245 62.7784 10.676C62.7784 11.3276 62.8864 11.9241 63.1023 12.4658C63.322 13.0075 63.642 13.4412 64.0625 13.7669C64.483 14.0927 64.9962 14.2556 65.6023 14.2556ZM76.2259 13.5851L79.5043 6.27267H80.4872L76.6293 14.9999H75.8224L72.0099 6.27267H72.9759L76.2259 13.5851ZM72.6747 6.27267V14.9999H71.6634V6.27267H72.6747ZM79.777 14.9999V6.27267H80.7884V14.9999H79.777ZM85.9134 15.1988C85.3868 15.1988 84.9058 15.0965 84.4702 14.8919C84.0346 14.6836 83.688 14.3844 83.4304 13.9942C83.1728 13.6003 83.044 13.123 83.044 12.5624C83.044 12.1306 83.1255 11.7669 83.2884 11.4715C83.4512 11.176 83.6823 10.9336 83.9815 10.7442C84.2808 10.5548 84.6349 10.4052 85.044 10.2954C85.4531 10.1855 85.9039 10.1003 86.3963 10.0397C86.8849 9.9791 87.2978 9.92608 87.6349 9.88062C87.9759 9.83517 88.2353 9.7632 88.4134 9.66471C88.5914 9.56623 88.6804 9.40714 88.6804 9.18744V8.98289C88.6804 8.3882 88.5024 7.92038 88.1463 7.57948C87.794 7.23478 87.2865 7.06244 86.6236 7.06244C85.9948 7.06244 85.4815 7.2007 85.0838 7.47721C84.6899 7.75373 84.4134 8.07948 84.2543 8.45448L83.294 8.10789C83.491 7.63062 83.7637 7.24994 84.1122 6.96585C84.4607 6.67797 84.8509 6.47153 85.2827 6.34653C85.7145 6.21774 86.152 6.15335 86.5952 6.15335C86.9285 6.15335 87.2751 6.19691 87.6349 6.28403C87.9986 6.37115 88.3357 6.52267 88.6463 6.73857C88.9569 6.9507 89.2088 7.24805 89.402 7.63062C89.5952 8.00941 89.6918 8.49047 89.6918 9.0738V14.9999H88.6804V13.6192H88.6179C88.4967 13.8768 88.3168 14.1268 88.0781 14.3692C87.8395 14.6116 87.5402 14.8105 87.1804 14.9658C86.8205 15.1211 86.3982 15.1988 85.9134 15.1988ZM86.0497 14.2726C86.5876 14.2726 87.0535 14.1533 87.4474 13.9147C87.8414 13.676 88.1444 13.3597 88.3565 12.9658C88.5724 12.5681 88.6804 12.1306 88.6804 11.6533V10.3919C88.6046 10.4639 88.4777 10.5283 88.2997 10.5851C88.1255 10.6419 87.9228 10.6931 87.6918 10.7385C87.4645 10.7802 87.2372 10.8162 87.0099 10.8465C86.7827 10.8768 86.5781 10.9033 86.3963 10.926C85.9039 10.9866 85.4834 11.0813 85.1349 11.2101C84.7865 11.3389 84.5194 11.5169 84.3338 11.7442C84.1482 11.9677 84.0554 12.2556 84.0554 12.6079C84.0554 13.1382 84.2448 13.5491 84.6236 13.8408C85.0024 14.1287 85.4777 14.2726 86.0497 14.2726ZM91.348 17.4829V14.0454H92.1037C92.2931 13.8332 92.4579 13.6041 92.598 13.3579C92.7382 13.1116 92.8594 12.8313 92.9616 12.5169C93.0677 12.1988 93.1567 11.8294 93.2287 11.409C93.3007 10.9847 93.3613 10.4904 93.4105 9.92607L93.7287 6.27267H98.8935V14.0454H100.189V17.4829H99.1776V14.9999H92.3651V17.4829H91.348ZM93.2685 14.0454H97.8821V7.22721H94.6719L94.4105 9.92607C94.3196 10.8427 94.1908 11.6419 94.0241 12.3238C93.8575 13.0056 93.6056 13.5794 93.2685 14.0454ZM105.526 15.1817C104.745 15.1817 104.065 14.9866 103.486 14.5965C102.91 14.2063 102.463 13.6722 102.145 12.9942C101.827 12.3162 101.668 11.5435 101.668 10.676C101.668 9.80107 101.829 9.02267 102.151 8.34085C102.476 7.65903 102.927 7.12493 103.503 6.73857C104.079 6.34841 104.747 6.15335 105.509 6.15335C106.092 6.15335 106.62 6.26698 107.094 6.49426C107.567 6.71774 107.957 7.03403 108.264 7.44312C108.575 7.84842 108.77 8.32191 108.849 8.86357H107.827C107.721 8.37114 107.465 7.9507 107.06 7.60221C106.658 7.24994 106.147 7.0738 105.526 7.0738C104.969 7.0738 104.476 7.22532 104.048 7.52835C103.62 7.82759 103.285 8.24615 103.043 8.78403C102.804 9.31812 102.685 9.93744 102.685 10.6419C102.685 11.3503 102.802 11.9772 103.037 12.5226C103.272 13.0643 103.601 13.4885 104.026 13.7954C104.454 14.1022 104.954 14.2556 105.526 14.2556C105.912 14.2556 106.264 14.1836 106.582 14.0397C106.904 13.8919 107.173 13.6836 107.389 13.4147C107.609 13.1457 107.757 12.8257 107.832 12.4544H108.855C108.779 12.981 108.592 13.4507 108.293 13.8635C107.997 14.2726 107.613 14.5946 107.139 14.8294C106.67 15.0643 106.132 15.1817 105.526 15.1817ZM111.864 9.64198H114.415C115.396 9.64198 116.153 9.88061 116.688 10.3579C117.222 10.8351 117.489 11.481 117.489 12.2954C117.489 12.837 117.369 13.3105 117.131 13.7158C116.892 14.1211 116.544 14.4374 116.085 14.6647C115.627 14.8882 115.07 14.9999 114.415 14.9999H111.023V6.27267H112.034V14.0454H114.415C115.032 14.0454 115.53 13.8976 115.909 13.6022C116.288 13.3067 116.477 12.8863 116.477 12.3408C116.477 11.784 116.288 11.3541 115.909 11.051C115.53 10.748 115.032 10.5965 114.415 10.5965H111.864V9.64198ZM119.71 14.9999V6.27267H120.722V10.1988H121.67L124.915 6.27267H126.222L122.722 10.4715L126.301 14.9999H124.994L121.983 11.1533H120.722V14.9999H119.71ZM130.398 15.1988C129.871 15.1988 129.39 15.0965 128.955 14.8919C128.519 14.6836 128.172 14.3844 127.915 13.9942C127.657 13.6003 127.528 13.123 127.528 12.5624C127.528 12.1306 127.61 11.7669 127.773 11.4715C127.936 11.176 128.167 10.9336 128.466 10.7442C128.765 10.5548 129.119 10.4052 129.528 10.2954C129.938 10.1855 130.388 10.1003 130.881 10.0397C131.369 9.9791 131.782 9.92608 132.119 9.88062C132.46 9.83517 132.72 9.7632 132.898 9.66471C133.076 9.56623 133.165 9.40714 133.165 9.18744V8.98289C133.165 8.3882 132.987 7.92038 132.631 7.57948C132.278 7.23478 131.771 7.06244 131.108 7.06244C130.479 7.06244 129.966 7.2007 129.568 7.47721C129.174 7.75373 128.898 8.07948 128.739 8.45448L127.778 8.10789C127.975 7.63062 128.248 7.24994 128.597 6.96585C128.945 6.67797 129.335 6.47153 129.767 6.34653C130.199 6.21774 130.636 6.15335 131.08 6.15335C131.413 6.15335 131.759 6.19691 132.119 6.28403C132.483 6.37115 132.82 6.52267 133.131 6.73857C133.441 6.9507 133.693 7.24805 133.886 7.63062C134.08 8.00941 134.176 8.49047 134.176 9.0738V14.9999H133.165V13.6192H133.102C132.981 13.8768 132.801 14.1268 132.562 14.3692C132.324 14.6116 132.025 14.8105 131.665 14.9658C131.305 15.1211 130.883 15.1988 130.398 15.1988ZM130.534 14.2726C131.072 14.2726 131.538 14.1533 131.932 13.9147C132.326 13.676 132.629 13.3597 132.841 12.9658C133.057 12.5681 133.165 12.1306 133.165 11.6533V10.3919C133.089 10.4639 132.962 10.5283 132.784 10.5851C132.61 10.6419 132.407 10.6931 132.176 10.7385C131.949 10.7802 131.722 10.8162 131.494 10.8465C131.267 10.8768 131.062 10.9033 130.881 10.926C130.388 10.9866 129.968 11.0813 129.619 11.2101C129.271 11.3389 129.004 11.5169 128.818 11.7442C128.633 11.9677 128.54 12.2556 128.54 12.6079C128.54 13.1382 128.729 13.5491 129.108 13.8408C129.487 14.1287 129.962 14.2726 130.534 14.2726ZM144.759 15.1817C144.005 15.1817 143.338 14.9904 142.759 14.6079C142.183 14.2253 141.732 13.6969 141.406 13.0226C141.08 12.3446 140.918 11.5624 140.918 10.676C140.918 9.78214 141.08 8.99615 141.406 8.31812C141.732 7.6363 142.183 7.106 142.759 6.72721C143.338 6.34464 144.005 6.15335 144.759 6.15335C145.512 6.15335 146.177 6.34464 146.753 6.72721C147.329 7.10979 147.779 7.64009 148.105 8.31812C148.435 8.99615 148.599 9.78214 148.599 10.676C148.599 11.5624 148.437 12.3446 148.111 13.0226C147.785 13.6969 147.332 14.2253 146.753 14.6079C146.177 14.9904 145.512 15.1817 144.759 15.1817ZM144.759 14.2556C145.365 14.2556 145.878 14.0927 146.298 13.7669C146.719 13.4412 147.037 13.0075 147.253 12.4658C147.473 11.9241 147.582 11.3276 147.582 10.676C147.582 10.0245 147.473 9.42607 147.253 8.88062C147.037 8.33517 146.719 7.89767 146.298 7.56812C145.878 7.23858 145.365 7.0738 144.759 7.0738C144.156 7.0738 143.643 7.23858 143.219 7.56812C142.798 7.89767 142.478 8.33517 142.259 8.88062C142.043 9.42607 141.935 10.0245 141.935 10.676C141.935 11.3276 142.043 11.9241 142.259 12.4658C142.478 13.0075 142.798 13.4412 143.219 13.7669C143.639 14.0927 144.152 14.2556 144.759 14.2556ZM150.82 18.2726V6.27267H151.803V7.93744H151.922C152.043 7.67607 152.21 7.40903 152.422 7.1363C152.634 6.85979 152.914 6.62683 153.263 6.43744C153.615 6.24805 154.058 6.15335 154.592 6.15335C155.312 6.15335 155.941 6.34274 156.479 6.72153C157.02 7.09653 157.441 7.62304 157.74 8.30107C158.043 8.97532 158.195 9.76129 158.195 10.659C158.195 11.5605 158.043 12.3503 157.74 13.0283C157.441 13.7063 157.02 14.2347 156.479 14.6135C155.941 14.9923 155.316 15.1817 154.604 15.1817C154.077 15.1817 153.636 15.087 153.28 14.8976C152.928 14.7082 152.642 14.4753 152.422 14.1988C152.206 13.9185 152.039 13.6457 151.922 13.3806H151.831V18.2726H150.82ZM151.82 10.6419C151.82 11.3465 151.924 11.9715 152.132 12.5169C152.344 13.0586 152.647 13.4847 153.041 13.7954C153.439 14.1022 153.92 14.2556 154.484 14.2556C155.064 14.2556 155.553 14.0965 155.95 13.7783C156.352 13.4563 156.657 13.0226 156.865 12.4772C157.077 11.9317 157.183 11.32 157.183 10.6419C157.183 9.97153 157.079 9.36735 156.871 8.82948C156.666 8.2916 156.363 7.86547 155.962 7.55107C155.56 7.23288 155.068 7.0738 154.484 7.0738C153.916 7.0738 153.433 7.22721 153.036 7.53403C152.638 7.83706 152.335 8.25752 152.126 8.79539C151.922 9.32949 151.82 9.94502 151.82 10.6419ZM165.601 6.27267V7.22721H161.425V14.9999H160.413V6.27267H165.601ZM169.71 15.1988C169.184 15.1988 168.703 15.0965 168.267 14.8919C167.831 14.6836 167.485 14.3844 167.227 13.9942C166.97 13.6003 166.841 13.123 166.841 12.5624C166.841 12.1306 166.922 11.7669 167.085 11.4715C167.248 11.176 167.479 10.9336 167.778 10.7442C168.078 10.5548 168.432 10.4052 168.841 10.2954C169.25 10.1855 169.701 10.1003 170.193 10.0397C170.682 9.9791 171.095 9.92608 171.432 9.88062C171.773 9.83517 172.032 9.7632 172.21 9.66471C172.388 9.56623 172.477 9.40714 172.477 9.18744V8.98289C172.477 8.3882 172.299 7.92038 171.943 7.57948C171.591 7.23478 171.083 7.06244 170.42 7.06244C169.792 7.06244 169.278 7.2007 168.881 7.47721C168.487 7.75373 168.21 8.07948 168.051 8.45448L167.091 8.10789C167.288 7.63062 167.561 7.24994 167.909 6.96585C168.258 6.67797 168.648 6.47153 169.08 6.34653C169.511 6.21774 169.949 6.15335 170.392 6.15335C170.725 6.15335 171.072 6.19691 171.432 6.28403C171.795 6.37115 172.133 6.52267 172.443 6.73857C172.754 6.9507 173.006 7.24805 173.199 7.63062C173.392 8.00941 173.489 8.49047 173.489 9.0738V14.9999H172.477V13.6192H172.415C172.294 13.8768 172.114 14.1268 171.875 14.3692C171.636 14.6116 171.337 14.8105 170.977 14.9658C170.617 15.1211 170.195 15.1988 169.71 15.1988ZM169.847 14.2726C170.384 14.2726 170.85 14.1533 171.244 13.9147C171.638 13.676 171.941 13.3597 172.153 12.9658C172.369 12.5681 172.477 12.1306 172.477 11.6533V10.3919C172.402 10.4639 172.275 10.5283 172.097 10.5851C171.922 10.6419 171.72 10.6931 171.489 10.7385C171.261 10.7802 171.034 10.8162 170.807 10.8465C170.58 10.8768 170.375 10.9033 170.193 10.926C169.701 10.9866 169.28 11.0813 168.932 11.2101C168.583 11.3389 168.316 11.5169 168.131 11.7442C167.945 11.9677 167.852 12.2556 167.852 12.6079C167.852 13.1382 168.042 13.5491 168.42 13.8408C168.799 14.1287 169.275 14.2726 169.847 14.2726ZM182.071 10.1647V11.1192H176.94V10.1647H182.071ZM177.19 6.27267V14.9999H176.179V6.27267H177.19ZM182.815 6.27267V14.9999H181.804V6.27267H182.815ZM185.518 14.9999V6.27267H186.536V14.9999H185.518ZM186.036 4.77267C185.827 4.77267 185.649 4.70259 185.501 4.56244C185.354 4.4185 185.28 4.24615 185.28 4.04539C185.28 3.84464 185.354 3.67418 185.501 3.53403C185.649 3.39009 185.827 3.31812 186.036 3.31812C186.244 3.31812 186.422 3.39009 186.57 3.53403C186.717 3.67418 186.791 3.84464 186.791 4.04539C186.791 4.24615 186.717 4.4185 186.57 4.56244C186.422 4.70259 186.244 4.77267 186.036 4.77267ZM188.648 12.7726H189.722C189.752 13.2385 189.953 13.6022 190.324 13.8635C190.695 14.1249 191.184 14.2556 191.79 14.2556C192.419 14.2556 192.938 14.1154 193.347 13.8351C193.756 13.551 193.96 13.1382 193.96 12.5965C193.96 12.2669 193.883 11.981 193.727 11.7385C193.576 11.4961 193.367 11.3067 193.102 11.1704C192.841 11.0302 192.544 10.9582 192.21 10.9544H190.688V10.0283H192.193C192.712 9.99805 193.106 9.85789 193.375 9.60789C193.644 9.35411 193.778 9.02267 193.778 8.61357C193.778 8.14767 193.614 7.77456 193.284 7.49426C192.955 7.21017 192.508 7.06812 191.943 7.06812C191.371 7.06812 190.896 7.20827 190.517 7.48857C190.138 7.76888 189.938 8.12873 189.915 8.56812H188.852C188.871 8.09464 189.013 7.67797 189.278 7.31812C189.544 6.95449 189.902 6.67039 190.352 6.46585C190.807 6.2613 191.322 6.15903 191.898 6.15903C192.489 6.15903 193.002 6.26509 193.438 6.47721C193.873 6.68933 194.21 6.97911 194.449 7.34653C194.688 7.71017 194.807 8.12304 194.807 8.58517C194.807 9.06623 194.674 9.46206 194.409 9.77267C194.148 10.0794 193.813 10.2954 193.403 10.4204V10.5056C193.714 10.5397 193.987 10.6533 194.222 10.8465C194.46 11.0397 194.648 11.2878 194.784 11.5908C194.92 11.8938 194.989 12.2291 194.989 12.5965C194.989 13.1116 194.854 13.5643 194.585 13.9544C194.316 14.3408 193.941 14.6419 193.46 14.8579C192.983 15.0738 192.432 15.1817 191.807 15.1817C191.205 15.1817 190.669 15.0813 190.199 14.8806C189.729 14.676 189.356 14.3938 189.08 14.034C188.807 13.6704 188.663 13.2499 188.648 12.7726ZM199.507 15.1988C198.981 15.1988 198.5 15.0965 198.064 14.8919C197.628 14.6836 197.282 14.3844 197.024 13.9942C196.767 13.6003 196.638 13.123 196.638 12.5624C196.638 12.1306 196.719 11.7669 196.882 11.4715C197.045 11.176 197.276 10.9336 197.575 10.7442C197.875 10.5548 198.229 10.4052 198.638 10.2954C199.047 10.1855 199.498 10.1003 199.99 10.0397C200.479 9.9791 200.892 9.92608 201.229 9.88062C201.57 9.83517 201.829 9.7632 202.007 9.66471C202.185 9.56623 202.274 9.40714 202.274 9.18744V8.98289C202.274 8.3882 202.096 7.92038 201.74 7.57948C201.388 7.23478 200.88 7.06244 200.217 7.06244C199.589 7.06244 199.075 7.2007 198.678 7.47721C198.284 7.75373 198.007 8.07948 197.848 8.45448L196.888 8.10789C197.085 7.63062 197.357 7.24994 197.706 6.96585C198.054 6.67797 198.445 6.47153 198.876 6.34653C199.308 6.21774 199.746 6.15335 200.189 6.15335C200.522 6.15335 200.869 6.19691 201.229 6.28403C201.592 6.37115 201.929 6.52267 202.24 6.73857C202.551 6.9507 202.803 7.24805 202.996 7.63062C203.189 8.00941 203.286 8.49047 203.286 9.0738V14.9999H202.274V13.6192H202.212C202.09 13.8768 201.911 14.1268 201.672 14.3692C201.433 14.6116 201.134 14.8105 200.774 14.9658C200.414 15.1211 199.992 15.1988 199.507 15.1988ZM199.643 14.2726C200.181 14.2726 200.647 14.1533 201.041 13.9147C201.435 13.676 201.738 13.3597 201.95 12.9658C202.166 12.5681 202.274 12.1306 202.274 11.6533V10.3919C202.198 10.4639 202.071 10.5283 201.893 10.5851C201.719 10.6419 201.517 10.6931 201.286 10.7385C201.058 10.7802 200.831 10.8162 200.604 10.8465C200.376 10.8768 200.172 10.9033 199.99 10.926C199.498 10.9866 199.077 11.0813 198.729 11.2101C198.38 11.3389 198.113 11.5169 197.928 11.7442C197.742 11.9677 197.649 12.2556 197.649 12.6079C197.649 13.1382 197.839 13.5491 198.217 13.8408C198.596 14.1287 199.071 14.2726 199.643 14.2726ZM212.595 6.27267V14.0397H213.521V17.8238H212.51V14.9999H205.987V6.27267H207.004V14.0454H211.578V6.27267H212.595ZM215.69 14.9999V6.27267H216.707V14.9999H215.69ZM216.207 4.77267C215.999 4.77267 215.821 4.70259 215.673 4.56244C215.526 4.4185 215.452 4.24615 215.452 4.04539C215.452 3.84464 215.526 3.67418 215.673 3.53403C215.821 3.39009 215.999 3.31812 216.207 3.31812C216.416 3.31812 216.594 3.39009 216.741 3.53403C216.889 3.67418 216.963 3.84464 216.963 4.04539C216.963 4.24615 216.889 4.4185 216.741 4.56244C216.594 4.70259 216.416 4.77267 216.207 4.77267ZM224.632 14.9999V7.21017H222.229C221.604 7.21395 221.128 7.34464 220.803 7.60221C220.481 7.85979 220.32 8.24426 220.32 8.75562C220.32 9.26699 220.473 9.65146 220.78 9.90903C221.087 10.1628 221.534 10.2897 222.121 10.2897H224.916V11.2442H222.121C221.518 11.2442 221.007 11.1476 220.587 10.9544C220.17 10.7613 219.852 10.4791 219.632 10.1079C219.412 9.73667 219.303 9.28592 219.303 8.75562C219.303 8.22153 219.414 7.77077 219.638 7.40335C219.865 7.03214 220.196 6.75183 220.632 6.56244C221.071 6.36926 221.604 6.27267 222.229 6.27267H225.598V14.9999H224.632ZM218.751 14.9999L221.263 10.659H222.371L219.859 14.9999H218.751Z"
          fill="black" />
        <path
          d="M44.9375 24H46.875V38.2188H52.5V24H54.4375V38.2188H60.0625V24H62V40H44.9375V24ZM64.5723 40V38.2812H65.0098C65.3691 38.2812 65.6686 38.211 65.9082 38.0704C66.1478 37.9246 66.3405 37.6719 66.4863 37.3125C66.6374 36.9479 66.752 36.4428 66.8301 35.797C66.9134 35.1459 66.9733 34.3177 67.0098 33.3125L67.2285 28H75.2285V40H73.3848V29.7188H68.9785L68.791 34C68.7493 34.9844 68.6608 35.8517 68.5254 36.6017C68.3952 37.3464 68.1947 37.9714 67.9238 38.4767C67.6582 38.9819 67.304 39.362 66.8613 39.6172C66.4186 39.8724 65.8639 40 65.1973 40H64.5723ZM85.8301 40V29.6875H82.6426C81.9238 29.6875 81.3587 29.8542 80.9473 30.1875C80.5358 30.5208 80.3301 30.9792 80.3301 31.5625C80.3301 32.1354 80.515 32.5859 80.8848 32.9142C81.2598 33.2423 81.7728 33.4063 82.4238 33.4063H86.2988V35.125H82.4238C81.6113 35.125 80.9108 34.9819 80.3223 34.6954C79.7337 34.409 79.2806 34 78.9629 33.4688C78.6452 32.9323 78.4863 32.2969 78.4863 31.5625C78.4863 30.8229 78.653 30.1876 78.9863 29.6562C79.3197 29.1251 79.7962 28.7162 80.416 28.4298C81.041 28.1433 81.7832 28 82.6426 28H87.5801V40H85.8301ZM77.8301 40L81.2363 34.0313H83.2363L79.8301 40H77.8301ZM92.3398 28L95.2148 32.9062L98.0898 28H100.215L96.3398 34L100.215 40H98.0898L95.2148 35.3438L92.3398 40H90.2148L94.0273 34L90.2148 28H92.3398ZM107.752 43.4375V38.2812H108.752C108.997 38.026 109.208 37.75 109.385 37.4531C109.562 37.1562 109.715 36.8047 109.846 36.3984C109.981 35.987 110.096 35.487 110.189 34.8984C110.283 34.3047 110.367 33.5885 110.439 32.75L110.846 28H118.471V38.2812H120.314V43.4375H118.471V40H109.596V43.4375H107.752ZM110.846 38.2812H116.627V29.7188H112.564L112.252 32.75C112.122 34.0052 111.96 35.1017 111.768 36.0392C111.575 36.9767 111.268 37.724 110.846 38.2812ZM127.637 40.25C126.553 40.25 125.603 39.9923 124.785 39.4767C123.973 38.9609 123.337 38.2396 122.879 37.3125C122.426 36.3854 122.199 35.3021 122.199 34.0625C122.199 32.8125 122.426 31.7215 122.879 30.7892C123.337 29.8569 123.973 29.1329 124.785 28.6173C125.603 28.1017 126.553 27.8438 127.637 27.8438C128.72 27.8438 129.668 28.1017 130.48 28.6173C131.298 29.1329 131.934 29.8569 132.387 30.7892C132.845 31.7215 133.074 32.8125 133.074 34.0625C133.074 35.3021 132.845 36.3854 132.387 37.3125C131.934 38.2396 131.298 38.9609 130.48 39.4767C129.668 39.9923 128.72 40.25 127.637 40.25ZM127.637 38.5938C128.46 38.5938 129.137 38.3828 129.668 37.9609C130.199 37.5391 130.592 36.9845 130.848 36.297C131.103 35.6095 131.23 34.8646 131.23 34.0625C131.23 33.2604 131.103 32.513 130.848 31.8203C130.592 31.1276 130.199 30.5677 129.668 30.1406C129.137 29.7135 128.46 29.5 127.637 29.5C126.814 29.5 126.137 29.7135 125.605 30.1406C125.074 30.5677 124.681 31.1276 124.426 31.8203C124.171 32.513 124.043 33.2604 124.043 34.0625C124.043 34.8646 124.171 35.6095 124.426 36.297C124.681 36.9845 125.074 37.5391 125.605 37.9609C126.137 38.3828 126.814 38.5938 127.637 38.5938ZM147.451 40.2188C146.42 40.2188 145.501 40.0417 144.693 39.6875C143.891 39.3333 143.253 38.8411 142.779 38.2109C142.311 37.5755 142.055 36.8385 142.014 36H143.982C144.024 36.5156 144.201 36.9609 144.514 37.3359C144.826 37.7057 145.235 37.9923 145.74 38.1954C146.245 38.3985 146.805 38.5 147.42 38.5C148.107 38.5 148.717 38.3802 149.248 38.1406C149.779 37.901 150.196 37.5677 150.498 37.1406C150.8 36.7135 150.951 36.2189 150.951 35.6562C150.951 35.0677 150.805 34.5496 150.514 34.1017C150.222 33.6484 149.795 33.2944 149.232 33.0392C148.67 32.7839 147.982 32.6562 147.17 32.6562H145.889V30.9375H147.17C147.805 30.9375 148.363 30.8229 148.842 30.5938C149.326 30.3646 149.704 30.0417 149.975 29.625C150.251 29.2083 150.389 28.7188 150.389 28.1562C150.389 27.6147 150.269 27.1433 150.029 26.7423C149.79 26.3412 149.451 26.0287 149.014 25.8048C148.581 25.5808 148.071 25.4688 147.482 25.4688C146.93 25.4688 146.41 25.5703 145.92 25.7734C145.436 25.9714 145.04 26.2604 144.732 26.6406C144.425 27.0156 144.258 27.4688 144.232 28H142.357C142.389 27.1615 142.641 26.4271 143.115 25.7969C143.589 25.1615 144.209 24.6667 144.975 24.3125C145.745 23.9583 146.592 23.7812 147.514 23.7812C148.503 23.7812 149.352 23.9818 150.061 24.3828C150.769 24.7786 151.313 25.3021 151.693 25.9531C152.074 26.6042 152.264 27.3073 152.264 28.0625C152.264 28.9635 152.027 29.7319 151.553 30.3673C151.084 31.0027 150.446 31.4427 149.639 31.6875V31.8125C150.649 31.9792 151.438 32.4089 152.006 33.1017C152.574 33.7892 152.857 34.6406 152.857 35.6562C152.857 36.526 152.62 37.3073 152.146 38C151.678 38.6875 151.037 39.2292 150.225 39.625C149.412 40.0208 148.488 40.2188 147.451 40.2188ZM154.803 43.4375V38.2812H155.803C156.048 38.026 156.258 37.75 156.436 37.4531C156.613 37.1562 156.766 36.8047 156.896 36.3984C157.032 35.987 157.146 35.487 157.24 34.8984C157.334 34.3047 157.417 33.5885 157.49 32.75L157.896 28H165.521V38.2812H167.365V43.4375H165.521V40H156.646V43.4375H154.803ZM157.896 38.2812H163.678V29.7188H159.615L159.303 32.75C159.173 34.0052 159.011 35.1017 158.818 36.0392C158.626 36.9767 158.318 37.724 157.896 38.2812ZM174.688 40.25C173.604 40.25 172.654 39.9923 171.836 39.4767C171.023 38.9609 170.388 38.2396 169.93 37.3125C169.477 36.3854 169.25 35.3021 169.25 34.0625C169.25 32.8125 169.477 31.7215 169.93 30.7892C170.388 29.8569 171.023 29.1329 171.836 28.6173C172.654 28.1017 173.604 27.8438 174.688 27.8438C175.771 27.8438 176.719 28.1017 177.531 28.6173C178.349 29.1329 178.984 29.8569 179.438 30.7892C179.896 31.7215 180.125 32.8125 180.125 34.0625C180.125 35.3021 179.896 36.3854 179.438 37.3125C178.984 38.2396 178.349 38.9609 177.531 39.4767C176.719 39.9923 175.771 40.25 174.688 40.25ZM174.688 38.5938C175.51 38.5938 176.187 38.3828 176.719 37.9609C177.25 37.5391 177.643 36.9845 177.898 36.297C178.154 35.6095 178.281 34.8646 178.281 34.0625C178.281 33.2604 178.154 32.513 177.898 31.8203C177.643 31.1276 177.25 30.5677 176.719 30.1406C176.187 29.7135 175.51 29.5 174.688 29.5C173.865 29.5 173.188 29.7135 172.656 30.1406C172.125 30.5677 171.732 31.1276 171.477 31.8203C171.221 32.513 171.094 33.2604 171.094 34.0625C171.094 34.8646 171.221 35.6095 171.477 36.297C171.732 36.9845 172.125 37.5391 172.656 37.9609C173.188 38.3828 173.865 38.5938 174.688 38.5938ZM182.939 44.5V28H184.721V29.9062H184.939C185.075 29.6979 185.262 29.4323 185.502 29.1094C185.747 28.7812 186.096 28.4896 186.549 28.2344C187.007 27.974 187.627 27.8438 188.408 27.8438C189.419 27.8438 190.309 28.0965 191.08 28.6017C191.851 29.1069 192.452 29.8229 192.885 30.75C193.317 31.6771 193.533 32.7708 193.533 34.0313C193.533 35.3021 193.317 36.4036 192.885 37.3359C192.452 38.263 191.854 38.9818 191.088 39.4922C190.322 39.9974 189.439 40.25 188.439 40.25C187.669 40.25 187.051 40.1224 186.588 39.8672C186.124 39.6068 185.768 39.3126 185.518 38.9845C185.268 38.6511 185.075 38.375 184.939 38.1562H184.783V44.5H182.939ZM184.752 34C184.752 34.9062 184.885 35.7057 185.15 36.3984C185.416 37.0859 185.804 37.625 186.314 38.0156C186.825 38.401 187.45 38.5938 188.189 38.5938C188.96 38.5938 189.604 38.3907 190.119 37.9845C190.64 37.573 191.031 37.0208 191.291 36.3281C191.557 35.6302 191.689 34.8542 191.689 34C191.689 33.1562 191.559 32.3959 191.299 31.7188C191.044 31.0366 190.656 30.4975 190.135 30.1017C189.619 29.7006 188.971 29.5 188.189 29.5C187.439 29.5 186.809 29.6901 186.299 30.0703C185.788 30.4453 185.403 30.9714 185.143 31.6484C184.882 32.3203 184.752 33.1042 184.752 34ZM201.221 40.25C200.137 40.25 199.187 39.9923 198.369 39.4767C197.557 38.9609 196.921 38.2396 196.463 37.3125C196.01 36.3854 195.783 35.3021 195.783 34.0625C195.783 32.8125 196.01 31.7215 196.463 30.7892C196.921 29.8569 197.557 29.1329 198.369 28.6173C199.187 28.1017 200.137 27.8438 201.221 27.8438C202.304 27.8438 203.252 28.1017 204.064 28.6173C204.882 29.1329 205.518 29.8569 205.971 30.7892C206.429 31.7215 206.658 32.8125 206.658 34.0625C206.658 35.3021 206.429 36.3854 205.971 37.3125C205.518 38.2396 204.882 38.9609 204.064 39.4767C203.252 39.9923 202.304 40.25 201.221 40.25ZM201.221 38.5938C202.044 38.5938 202.721 38.3828 203.252 37.9609C203.783 37.5391 204.176 36.9845 204.432 36.297C204.687 35.6095 204.814 34.8646 204.814 34.0625C204.814 33.2604 204.687 32.513 204.432 31.8203C204.176 31.1276 203.783 30.5677 203.252 30.1406C202.721 29.7135 202.044 29.5 201.221 29.5C200.398 29.5 199.721 29.7135 199.189 30.1406C198.658 30.5677 198.265 31.1276 198.01 31.8203C197.755 32.513 197.627 33.2604 197.627 34.0625C197.627 34.8646 197.755 35.6095 198.01 36.297C198.265 36.9845 198.658 37.5391 199.189 37.9609C199.721 38.3828 200.398 38.5938 201.221 38.5938ZM209.473 40V28H214.379C215.671 28 216.697 28.2917 217.457 28.875C218.217 29.4583 218.598 30.2292 218.598 31.1875C218.598 31.9167 218.382 32.4819 217.949 32.8829C217.517 33.2787 216.962 33.5469 216.285 33.6875C216.728 33.75 217.158 33.9062 217.574 34.1562C217.996 34.4062 218.345 34.75 218.621 35.1875C218.897 35.6198 219.035 36.151 219.035 36.7812C219.035 37.3959 218.879 37.9453 218.566 38.4297C218.254 38.9141 217.806 39.2969 217.223 39.5781C216.639 39.8594 215.941 40 215.129 40H209.473ZM211.223 38.3125H215.129C215.764 38.3125 216.262 38.1616 216.621 37.8595C216.98 37.5574 217.16 37.1458 217.16 36.625C217.16 36.0052 216.98 35.5183 216.621 35.1642C216.262 34.8048 215.764 34.625 215.129 34.625H211.223V38.3125ZM211.223 33.0312H214.379C214.874 33.0312 215.298 32.9635 215.652 32.8281C216.007 32.6875 216.277 32.4897 216.465 32.2345C216.658 31.9741 216.754 31.6667 216.754 31.3125C216.754 30.8073 216.543 30.4115 216.121 30.125C215.699 29.8333 215.118 29.6875 214.379 29.6875H211.223V33.0312ZM223.451 24V25.4062C223.451 25.8333 223.373 26.2891 223.217 26.7734C223.066 27.2526 222.842 27.7187 222.545 28.1719C222.253 28.6198 221.899 29.0104 221.482 29.3438L220.482 28.5313C220.811 28.0625 221.094 27.5755 221.334 27.0703C221.579 26.5599 221.701 26.0156 221.701 25.4375V24H223.451ZM232.354 40V29.6875H229.166C228.447 29.6875 227.882 29.8542 227.471 30.1875C227.059 30.5208 226.854 30.9792 226.854 31.5625C226.854 32.1354 227.038 32.5859 227.408 32.9142C227.783 33.2423 228.296 33.4063 228.947 33.4063H232.822V35.125H228.947C228.135 35.125 227.434 34.9819 226.846 34.6954C226.257 34.409 225.804 34 225.486 33.4688C225.169 32.9323 225.01 32.2969 225.01 31.5625C225.01 30.8229 225.176 30.1876 225.51 29.6562C225.843 29.1251 226.32 28.7162 226.939 28.4298C227.564 28.1433 228.307 28 229.166 28H234.104V40H232.354ZM224.354 40L227.76 34.0313H229.76L226.354 40H224.354Z"
          fill="black" />
        <mask id="mask0_80_504" style="mask-type:luminance" maskUnits="userSpaceOnUse" x="0" y="3"
          width="38" height="38">
          <path d="M38 3H0V41H38V3Z" fill="white" />
        </mask>
        <g mask="url(#mask0_80_504)">
          <path fill-rule="evenodd" clip-rule="evenodd"
            d="M19 41V33.2131C12.8072 33.2131 7.78688 28.1928 7.78688 22C7.78688 15.8072 12.8072 10.7869 19 10.7869V3C8.50658 3 0 11.5066 0 22C0 32.4934 8.50658 41 19 41Z"
            fill="#567DC2" />
          <path fill-rule="evenodd" clip-rule="evenodd"
            d="M19 3V10.7869C25.1928 10.7869 30.2131 15.8072 30.2131 22C30.2131 28.1928 25.1928 33.2131 19 33.2131V41C29.4934 41 38 32.4934 38 22C38 11.5066 29.4934 3 19 3Z"
            fill="#FFD708" />
          <path fill-rule="evenodd" clip-rule="evenodd"
            d="M18.9999 19.1968C18.31 19.1968 17.6355 19.4057 17.0618 19.797C16.4882 20.1883 16.041 20.7445 15.777 21.3952C15.5129 22.0459 15.4439 22.762 15.5785 23.4528C15.7131 24.1436 16.0453 24.7781 16.5332 25.2762C17.0211 25.7742 17.6427 26.1134 18.3194 26.2508C18.5446 26.2965 18.7725 26.3192 18.9999 26.3192V19.1968ZM18.9999 27.3367H17.5049C16.5797 27.3367 15.6923 27.7119 15.0381 28.3798C14.3839 29.0476 14.0164 29.9534 14.0164 30.8979V33.4416H15.0131H18.9999V27.3367Z"
            fill="#567DC2" />
          <path fill-rule="evenodd" clip-rule="evenodd"
            d="M19 19.1968C19.6899 19.1968 20.3644 19.4057 20.9381 19.797C21.5118 20.1883 21.9589 20.7445 22.223 21.3952C22.487 22.0459 22.5561 22.762 22.4215 23.4528C22.2868 24.1436 21.9546 24.7781 21.4667 25.2762C20.9788 25.7742 20.3573 26.1134 19.6805 26.2508C19.4553 26.2965 19.2274 26.3192 19 26.3192V19.1968ZM19 27.3367H20.4951C21.4203 27.3367 22.3076 27.7119 22.9618 28.3798C23.616 29.0476 23.9836 29.9534 23.9836 30.8979V33.4416H22.9869H19V27.3367Z"
            fill="#FFD708" />
        </g>
      </svg>
    </symbol>
  </defs>
</svg>